<?xml version="1.0" encoding="utf-8"?>
<!-- Generator: Adobe Illustrator 26.1.0, SVG Export Plug-In . SVG Version: 6.00 Build 0)  -->
<svg version="1.1" id="Layer_1" xmlns="http://www.w3.org/2000/svg" xmlns:xlink="http://www.w3.org/1999/xlink" x="0px" y="0px"
	 viewBox="0 0 500 500" style="enable-background:new 0 0 500 500;" xml:space="preserve">
<style type="text/css">
	.st0{fill:#999999;}
	.st1{opacity:0.5;}
	.st2{fill:#CCCCCC;stroke:#000000;stroke-miterlimit:10;}
</style>
<rect y="249.1" width="500" height="1.8"/>
<g>
	<path class="st0" d="M437.8,261.4l1.4,2.2c0.4,0.6,0.7,1.2,1.1,1.8h0.1c0.3-0.6,0.7-1.2,1-1.8l1.3-2.2h3.2L442,267l4,6.1h-3.3
		l-1.4-2.3c-0.4-0.6-0.7-1.2-1.1-1.9l0,0c-0.3,0.7-0.7,1.2-1.1,1.9l-1.3,2.3h-3.3l4.1-6l-3.9-5.7H437.8z"/>
	<path class="st0" d="M452.8,265.6v2h-6.1v-2H452.8z"/>
	<path class="st0" d="M461.7,273l-0.2-1.3h-0.1c-0.7,0.9-1.9,1.6-3.5,1.6c-2.4,0-3.7-1.7-3.7-3.5c0-3,2.6-4.4,6.9-4.4v-0.2
		c0-0.8-0.3-2-2.4-2c-1.2,0-2.4,0.4-3.1,0.9l-0.6-1.9c0.9-0.5,2.4-1,4.2-1c3.7,0,4.8,2.4,4.8,4.9v4.2c0,1.1,0,2.1,0.2,2.8h-2.5V273z
		 M461.3,267.3c-2.1,0-4.1,0.4-4.1,2.2c0,1.2,0.7,1.7,1.7,1.7c1.2,0,2-0.8,2.3-1.6c0.1-0.2,0.1-0.5,0.1-0.6V267.3z"/>
	<path class="st0" d="M469.3,261.4l1.4,2.2c0.4,0.6,0.7,1.2,1.1,1.8h0.1c0.3-0.6,0.7-1.2,1-1.8l1.3-2.2h3.2l-3.9,5.6l4,6.1h-3.3
		l-1.4-2.3c-0.4-0.6-0.7-1.2-1.1-1.9l0,0c-0.3,0.7-0.7,1.2-1.1,1.9l-1.3,2.3H466l4.1-6l-3.9-5.7H469.3z"/>
	<path class="st0" d="M482.3,258.1c0,0.9-0.6,1.6-1.7,1.6c-1,0-1.6-0.7-1.6-1.6s0.7-1.6,1.7-1.6
		C481.7,256.5,482.3,257.2,482.3,258.1z M479.2,273v-11.7h3V273H479.2z"/>
	<path class="st0" d="M485.2,270.3c0.7,0.4,1.9,0.8,3,0.8c1.3,0,1.9-0.5,1.9-1.3s-0.5-1.2-1.9-1.7c-2.3-0.8-3.2-2-3.2-3.4
		c0-2.1,1.7-3.7,4.4-3.7c1.3,0,2.4,0.3,3.1,0.7l-0.6,2.1c-0.5-0.3-1.4-0.7-2.5-0.7s-1.6,0.5-1.6,1.2s0.6,1.1,2,1.6
		c2.1,0.8,3.1,1.8,3.1,3.6c0,2.1-1.7,3.6-4.8,3.6c-1.4,0-2.7-0.3-3.6-0.8L485.2,270.3z"/>
</g>
<g>
	<path class="st0" d="M229.4,70.9l6.3-2.1c0.7-0.2,1.6-0.5,2.3-0.6v-0.1c-0.7-0.2-1.5-0.4-2.3-0.6l-6.2-1.8v-3.2l8,2.9
		c4.4,1.6,6.3,2.7,7.5,4.1c1,1.2,1.4,2.4,1.5,3.1l-2.5,0.7c-0.1-0.5-0.4-1.1-0.8-1.7c-0.4-0.6-1.1-1.2-1.8-1.6
		c-0.2-0.1-0.4-0.2-0.5-0.2s-0.3,0-0.6,0.2l-10.7,4.3v-3.4H229.4z"/>
	<path class="st0" d="M233.6,55.6h2v6.1h-2V55.6z"/>
	<path class="st0" d="M241,46.8l-1.3,0.2l0,0c0.9,0.7,1.6,1.9,1.6,3.5c0,2.4-1.7,3.7-3.5,3.7c-3,0-4.4-2.6-4.4-6.9h-0.2
		c-0.8,0-2,0.3-2,2.4c0,1.2,0.4,2.4,0.9,3.1l-1.9,0.6c-0.5-0.9-1-2.4-1-4.2c0-3.7,2.4-4.8,4.9-4.8h4.2c1.1,0,2.1,0,2.8-0.2v2.6H241z
		 M235.3,47.1c0,2.1,0.4,4.1,2.2,4.1c1.2,0,1.7-0.7,1.7-1.7c0-1.2-0.8-2-1.6-2.3c-0.2-0.1-0.5-0.1-0.6-0.1H235.3z"/>
	<path class="st0" d="M229.4,39.2l2.2-1.4c0.6-0.4,1.2-0.7,1.8-1.1v-0.1c-0.6-0.3-1.2-0.7-1.8-1l-2.2-1.3v-3.2L235,35l6.1-4v3.3
		l-2.3,1.4c-0.6,0.4-1.2,0.7-1.9,1.1l0,0c0.7,0.3,1.2,0.7,1.9,1.1l2.3,1.3v3.3l-6-4.1l-5.7,3.9L229.4,39.2L229.4,39.2z"/>
	<path class="st0" d="M226.1,26.1c0.9,0,1.6,0.6,1.6,1.7c0,1-0.7,1.6-1.6,1.6c-0.9,0-1.6-0.7-1.6-1.7
		C224.5,26.8,225.2,26.2,226.1,26.1z M241,29.3h-11.7v-3H241V29.3z"/>
	<path class="st0" d="M238.3,23.3c0.4-0.7,0.8-1.9,0.8-3c0-1.3-0.5-1.9-1.3-1.9s-1.2,0.5-1.7,1.9c-0.8,2.3-2,3.2-3.4,3.2
		c-2.1,0-3.7-1.7-3.7-4.4c0-1.3,0.3-2.4,0.7-3.1l2.1,0.6c-0.3,0.5-0.7,1.4-0.7,2.5s0.5,1.6,1.2,1.6s1.1-0.6,1.6-2
		c0.8-2.1,1.8-3.1,3.6-3.1c2.1,0,3.6,1.7,3.6,4.8c0,1.4-0.3,2.7-0.8,3.6L238.3,23.3z"/>
</g>
<rect x="249.1" width="1.8" height="500"/>
<g>
	<path d="M331.8,157.5l3.9,1.2c-0.3,1.1-0.7,2-1.2,2.7s-1.3,1.3-2.1,1.7s-1.9,0.6-3.2,0.6c-1.6,0-2.8-0.2-3.8-0.7s-1.8-1.2-2.6-2.4
		s-1.1-2.6-1.1-4.4c0-2.4,0.6-4.2,1.9-5.5c1.3-1.3,3-1.9,5.3-1.9c1.8,0,3.2,0.4,4.3,1.1s1.8,1.8,2.3,3.4l-3.9,0.9
		c-0.1-0.4-0.3-0.8-0.4-1c-0.2-0.3-0.5-0.6-0.9-0.8s-0.8-0.3-1.2-0.3c-1,0-1.8,0.4-2.3,1.2c-0.4,0.6-0.6,1.5-0.6,2.8
		c0,1.6,0.2,2.7,0.7,3.3c0.5,0.6,1.2,0.9,2,0.9c0.8,0,1.5-0.2,1.9-0.7S331.6,158.4,331.8,157.5z"/>
	<path d="M337,158.6l4.2-0.3c0.1,0.7,0.3,1.2,0.6,1.6c0.5,0.6,1.1,0.9,2,0.9c0.6,0,1.1-0.1,1.5-0.4s0.5-0.6,0.5-1
		c0-0.4-0.2-0.7-0.5-1s-1.1-0.6-2.3-0.8c-1.9-0.4-3.3-1-4.2-1.7c-0.8-0.7-1.2-1.6-1.2-2.8c0-0.7,0.2-1.4,0.6-2.1s1.1-1.2,1.9-1.5
		s2-0.6,3.5-0.6c1.8,0,3.2,0.3,4.2,1s1.5,1.8,1.7,3.2l-4.2,0.2c-0.1-0.6-0.3-1.1-0.7-1.4s-0.8-0.4-1.5-0.4c-0.5,0-0.9,0.1-1.2,0.3
		s-0.4,0.5-0.4,0.8c0,0.2,0.1,0.4,0.3,0.6c0.2,0.2,0.7,0.4,1.5,0.5c1.9,0.4,3.3,0.8,4.2,1.3s1.4,1,1.8,1.6s0.6,1.3,0.6,2.1
		c0,0.9-0.3,1.8-0.8,2.5s-1.2,1.4-2.1,1.8s-2.1,0.6-3.4,0.6c-2.4,0-4.1-0.5-5.1-1.4S337.2,160.1,337,158.6z"/>
	<path d="M358.4,160.7h-7.2v-3.3l7.2-8.6h3.5v8.8h1.8v3.1h-1.8v2.7h-3.5V160.7z M358.4,157.6v-4.5l-3.8,4.5H358.4z"/>
	<path d="M376.5,152.3l-4,0.5c-0.1-0.6-0.3-0.9-0.5-1.2s-0.5-0.3-0.9-0.3c-0.6,0-1.1,0.3-1.5,1c-0.3,0.5-0.5,1.5-0.6,3
		c0.5-0.5,1-0.8,1.5-1.1s1.1-0.3,1.7-0.3c1.3,0,2.4,0.5,3.2,1.4s1.3,2.1,1.3,3.5c0,0.9-0.2,1.8-0.7,2.6s-1.1,1.4-1.9,1.8
		s-1.8,0.6-3,0.6c-1.4,0-2.6-0.2-3.4-0.7s-1.6-1.3-2.1-2.3s-0.8-2.5-0.8-4.3c0-2.6,0.5-4.5,1.6-5.7s2.6-1.8,4.5-1.8
		c1.1,0,2,0.1,2.7,0.4s1.2,0.6,1.6,1.2S376.2,151.5,376.5,152.3z M369.1,158.7c0,0.8,0.2,1.4,0.6,1.8s0.9,0.7,1.4,0.7
		c0.5,0,1-0.2,1.3-0.6s0.5-1,0.5-1.8c0-0.8-0.2-1.4-0.5-1.8s-0.8-0.6-1.4-0.6c-0.6,0-1,0.2-1.4,0.6S369.1,157.9,369.1,158.7z"/>
	<path d="M389.9,163.4H378c0.1-1.2,0.6-2.3,1.2-3.3s2-2.3,3.9-3.7c1.2-0.9,1.9-1.5,2.2-2s0.5-0.9,0.5-1.3c0-0.4-0.2-0.8-0.5-1.1
		s-0.7-0.5-1.2-0.5c-0.5,0-0.9,0.2-1.2,0.5s-0.5,0.9-0.6,1.7l-4-0.3c0.2-1.1,0.4-2,0.9-2.6s1-1.1,1.8-1.4s1.8-0.5,3.1-0.5
		c1.4,0,2.5,0.2,3.3,0.5s1.4,0.8,1.8,1.5s0.7,1.4,0.7,2.2c0,0.9-0.3,1.7-0.8,2.5s-1.4,1.7-2.8,2.6c-0.8,0.6-1.3,0.9-1.6,1.2
		s-0.6,0.5-1,0.9h6.2V163.4z"/>
	<path d="M391.6,156.2c0-2.7,0.5-4.6,1.5-5.7s2.5-1.6,4.5-1.6c1,0,1.8,0.1,2.4,0.4s1.1,0.5,1.5,0.9s0.7,0.8,0.9,1.2s0.4,0.9,0.5,1.5
		c0.3,1.1,0.4,2.2,0.4,3.3c0,2.6-0.4,4.5-1.3,5.7s-2.4,1.8-4.5,1.8c-1.2,0-2.2-0.2-2.9-0.6s-1.4-0.9-1.8-1.7
		c-0.3-0.5-0.6-1.2-0.8-2.2S391.6,157.3,391.6,156.2z M395.6,156.2c0,1.8,0.2,3.1,0.5,3.7s0.8,1,1.4,1c0.4,0,0.8-0.1,1-0.4
		s0.5-0.7,0.7-1.3s0.2-1.6,0.2-2.9c0-1.9-0.2-3.2-0.5-3.8s-0.8-1-1.5-1c-0.7,0-1.1,0.3-1.4,1S395.6,154.4,395.6,156.2z"/>
	<path d="M412.2,149.1h4v2.7h-4V149.1z M412.2,153h4v10.4h-4V153z"/>
	<path d="M418,160.5l3.9-0.4c0.2,0.5,0.4,0.8,0.7,1s0.7,0.3,1.2,0.3c0.5,0,0.9-0.1,1.2-0.3c0.2-0.2,0.3-0.4,0.3-0.6
		c0-0.3-0.1-0.5-0.4-0.7c-0.2-0.1-0.8-0.2-1.7-0.4c-1.4-0.2-2.3-0.5-2.9-0.7s-1-0.6-1.4-1s-0.6-1-0.6-1.7c0-0.7,0.2-1.3,0.6-1.8
		s0.9-0.9,1.6-1.1c0.7-0.2,1.6-0.4,2.8-0.4c1.2,0,2.2,0.1,2.7,0.3s1.1,0.5,1.5,0.9s0.7,0.9,1,1.6l-3.8,0.4c-0.1-0.3-0.3-0.6-0.5-0.7
		c-0.3-0.2-0.7-0.3-1.1-0.3c-0.4,0-0.8,0.1-1,0.2c-0.2,0.2-0.3,0.4-0.3,0.6c0,0.3,0.1,0.4,0.4,0.6c0.3,0.1,0.8,0.2,1.7,0.4
		c1.3,0.1,2.3,0.4,2.9,0.6c0.6,0.3,1.1,0.6,1.5,1.1s0.5,1,0.5,1.6c0,0.6-0.2,1.2-0.5,1.7s-0.9,1-1.7,1.4s-1.8,0.5-3.2,0.5
		c-1.9,0-3.2-0.3-4-0.8S418.2,161.5,418,160.5z"/>
	<path d="M332.3,185h-5l-0.7,2.4H322l5.4-14.3h4.8l5.4,14.3H333L332.3,185z M331.4,181.9l-1.6-5.1l-1.6,5.1H331.4z"/>
	<path d="M337.6,177h3.8l1.7,6.5l2.1-6.5h3.6l2.2,6.5l1.7-6.5h3.8l-3.8,10.4h-3.5l-2.1-6.2l-2,6.2h-3.6L337.6,177z"/>
	<path d="M368.9,183.2h-8c0.1,0.6,0.2,1.1,0.5,1.4c0.4,0.4,0.9,0.7,1.5,0.7c0.4,0,0.8-0.1,1.1-0.3c0.2-0.1,0.4-0.3,0.7-0.7l3.9,0.4
		c-0.6,1-1.3,1.8-2.2,2.2s-2.1,0.7-3.6,0.7c-1.4,0-2.5-0.2-3.2-0.6s-1.4-1-2-1.8s-0.8-1.8-0.8-3c0-1.6,0.5-2.9,1.6-3.9
		s2.5-1.5,4.3-1.5c1.5,0,2.7,0.2,3.5,0.7s1.5,1.1,2,2s0.7,2,0.7,3.3V183.2z M364.9,181.3c-0.1-0.8-0.3-1.3-0.6-1.7s-0.8-0.5-1.3-0.5
		c-0.6,0-1.1,0.3-1.5,0.8c-0.2,0.3-0.4,0.8-0.5,1.4H364.9z"/>
	<path d="M370.1,184.5l3.9-0.4c0.2,0.5,0.4,0.8,0.7,1s0.7,0.3,1.2,0.3c0.5,0,0.9-0.1,1.2-0.3c0.2-0.2,0.3-0.4,0.3-0.6
		c0-0.3-0.1-0.5-0.4-0.7c-0.2-0.1-0.8-0.2-1.7-0.4c-1.4-0.2-2.3-0.5-2.9-0.7s-1-0.6-1.4-1s-0.6-1-0.6-1.7c0-0.7,0.2-1.3,0.6-1.8
		s0.9-0.9,1.6-1.1c0.7-0.2,1.6-0.4,2.8-0.4c1.2,0,2.2,0.1,2.7,0.3s1.1,0.5,1.5,0.9s0.7,0.9,1,1.6l-3.8,0.4c-0.1-0.3-0.3-0.6-0.5-0.7
		c-0.3-0.2-0.7-0.3-1.1-0.3c-0.4,0-0.8,0.1-1,0.2c-0.2,0.2-0.3,0.4-0.3,0.6c0,0.3,0.1,0.4,0.4,0.6c0.3,0.1,0.8,0.2,1.7,0.4
		c1.3,0.1,2.3,0.4,2.9,0.6c0.6,0.3,1.1,0.6,1.5,1.1s0.5,1,0.5,1.6c0,0.6-0.2,1.2-0.5,1.7s-0.9,1-1.7,1.4s-1.8,0.5-3.2,0.5
		c-1.9,0-3.2-0.3-4-0.8S370.3,185.5,370.1,184.5z"/>
	<path d="M382.5,182.2c0-1.6,0.5-2.9,1.6-3.9s2.5-1.5,4.3-1.5c2.1,0,3.6,0.6,4.7,1.8c0.9,1,1.3,2.2,1.3,3.6c0,1.6-0.5,2.9-1.6,3.9
		s-2.5,1.5-4.4,1.5c-1.7,0-3-0.4-4-1.3C383.1,185.3,382.5,183.9,382.5,182.2z M386.5,182.2c0,0.9,0.2,1.6,0.6,2.1s0.8,0.7,1.4,0.7
		c0.6,0,1-0.2,1.4-0.7s0.6-1.1,0.6-2.1c0-0.9-0.2-1.6-0.6-2s-0.8-0.7-1.4-0.7c-0.6,0-1.1,0.2-1.4,0.7S386.5,181.3,386.5,182.2z"/>
	<path d="M396.4,177h3.7v1.5c0.5-0.6,1.1-1.1,1.6-1.3c0.5-0.3,1.2-0.4,2-0.4c0.8,0,1.5,0.1,2,0.4s0.9,0.7,1.2,1.3
		c0.6-0.7,1.2-1.1,1.7-1.4s1.1-0.4,1.9-0.4c1.1,0,2,0.3,2.6,1s0.9,1.7,0.9,3.1v6.5h-4v-5.9c0-0.5-0.1-0.8-0.3-1
		c-0.3-0.4-0.6-0.5-1-0.5c-0.5,0-0.8,0.2-1.1,0.5c-0.3,0.3-0.4,0.9-0.4,1.6v5.4h-4v-5.7c0-0.5,0-0.8-0.1-0.9
		c-0.1-0.3-0.2-0.5-0.4-0.6s-0.5-0.2-0.7-0.2c-0.5,0-0.8,0.2-1.1,0.5c-0.3,0.3-0.4,0.9-0.4,1.7v5.3h-4V177z"/>
	<path d="M427.8,183.2h-8c0.1,0.6,0.2,1.1,0.5,1.4c0.4,0.4,0.9,0.7,1.5,0.7c0.4,0,0.8-0.1,1.1-0.3c0.2-0.1,0.4-0.3,0.7-0.7l3.9,0.4
		c-0.6,1-1.3,1.8-2.2,2.2s-2.1,0.7-3.6,0.7c-1.4,0-2.5-0.2-3.2-0.6s-1.4-1-2-1.8s-0.8-1.8-0.8-3c0-1.6,0.5-2.9,1.6-3.9
		s2.5-1.5,4.3-1.5c1.5,0,2.7,0.2,3.5,0.7s1.5,1.1,2,2s0.7,2,0.7,3.3V183.2z M423.8,181.3c-0.1-0.8-0.3-1.3-0.6-1.7s-0.8-0.5-1.3-0.5
		c-0.6,0-1.1,0.3-1.5,0.8c-0.2,0.3-0.4,0.8-0.5,1.4H423.8z"/>
</g>
<g class="st1">
	<g id="GqoF49.tif">
		<g>
			<path class="st2" d="M327,76.8c1,0,1.9-0.1,2.9,0c1,0.1,1.6-0.4,1.9-1.3c0.5-1,0.9-2.1,1.4-3.1c1-1.9,2.4-3.3,4.4-4.3
				c2.9-1.3,6-2,9.1-2.6c3.5-0.6,7-1.1,10.5-1.3c2.2-0.2,4.5-0.4,6.8-0.4c0.4,0,0.8-0.1,1.3-0.1c0.3,0,0.6-0.2,0.7-0.5
				c0.1-0.3,0-0.5-0.2-0.7c-0.9-1.1-1.8-2.2-2.8-3.3c-0.3-0.4-0.6-0.7-0.6-1.3c0-0.1-0.1-0.3-0.2-0.4c-0.9-1-0.3-2,0.6-2.6
				c1.1-0.7,2.4-1,3.7-1.2c3.4-0.4,6.9-0.5,10.3,0.3c0.8,0.2,1.4,0.5,2.1,0.8c0.8,0.4,1.2,1.2,1,2.1c-0.2,1.3-1.1,2.2-1.9,3.1
				c-0.8,0.9-1.7,1.8-2.3,2.9c-0.3,0.5-0.2,0.6,0.4,0.7c1,0.2,2.1,0,3.1,0.2c1.9,0.2,3.9,0.3,5.9,0.3c0.5,0,1.1,0.1,1.6,0.2
				c1.6,0.3,3.3,0.2,4.9,0.5c2.5,0.4,5,0.8,7.5,1.4c2.1,0.5,4.1,1.1,5.9,2.2c1.8,1,3.1,2.5,3.9,4.3c0.8,1.9,1.7,3.7,2.5,5.5
				c1.3,2.8,2.6,5.6,3.8,8.4c1,2.4,1.9,4.7,2.8,7.1c0.3,0.7,0.5,1.4,0.7,2.1c0.3,0.9,0.6,1.1,1.5,0.9c2.9-0.5,5.6-1.6,7.8-3.6
				c1.1-1,2-2.2,2.7-3.5c1.4-2.6,2.2-5.4,3.1-8.1c0.7-1.9,1.4-3.8,2.6-5.4c2.1-3.1,4.9-4.9,8.8-5.2c3.5-0.3,7-0.3,10.6-0.3
				c0.5,0,1,0.1,1.5,0.2c0.3,0,0.6,0.1,0.6,0.5c0,0.3-0.2,0.5-0.4,0.6c-0.7,0.5-1.6,0.8-2.4,1.2c-2.5,1.2-4.9,2.4-7,4.4
				c-1.4,1.3-2.6,2.8-3.5,4.4c-1.1,1.8-1.9,3.8-2.6,5.8c-0.8,2.2-1.4,4.6-2,6.8c-0.8,2.8-1.6,5.7-2.8,8.4c-1.1,2.5-2.4,4.8-4.2,6.8
				c-1.8,2.1-4,3.8-6.4,5.2c-1.5,0.8-3.1,1.5-4.7,2c-1,0.4-1.7,1-2.1,2c-0.5,1.3-1.3,2.4-2.1,3.5c-0.9,1.2-1.8,2.3-2.9,3.3
				c-1.6,1.5-3.2,3-4.9,4.3c-0.3,0.3-0.6,0.6-0.9,1c-1,1.2-2.4,1.9-3.9,2.5c-2.9,1.3-6.1,1.8-9.2,2.5c-1.7,0.4-3.4,0.3-5.1,0.8
				c-0.5,0.2-1.2,0.1-1.7,0.1c-1.3,0-2.5,0.2-3.7,0.5c-1,0.2-2,0.2-2.9,0.3c-1.4,0-2.7,0.3-4.1,0.4c-0.3,0-0.5,0.1-0.8,0.1
				c-2.3,0-4.7,0.1-7-0.1c-3.3-0.3-6.6-0.3-9.9-0.6c-2.4-0.2-4.8-0.3-7.2-0.7c-5.2-0.7-10.4-1.4-15.4-3.1c-1.6-0.5-3.2-1.1-4.5-2.2
				c-0.2-0.2-0.4-0.4-0.7-0.6c-1-1-2.1-1.9-3-3c-1-1.2-2.3-1.8-3.4-2.8c-0.7-0.6-1.2-1.4-1.8-2.1c-1.1-1.3-2-2.8-2.7-4.3
				c-0.2-0.5-0.7-0.7-1.2-1c-2.3-1.2-4.6-2.3-6.9-3.6c-2.9-1.7-5.6-3.6-8.2-5.7c-2.6-2.2-4.9-4.7-6.8-7.5c-1.8-2.7-3.1-5.5-3.6-8.7
				c-0.4-2.5-0.6-5.1,0.1-7.6c0.6-2.1,1.9-3.6,3.7-4.7c2.5-1.5,5.4-2.2,8.2-2.6c3.4-0.5,6.8-0.7,10.2-0.8
				C320.7,76.9,323.9,76.8,327,76.8z M302.6,88.7c0.1,1.3,0.3,2.6,0.7,3.9c0.5,1.6,1.2,3.2,2,4.7c1.1,2.1,2.5,4,4,5.7
				c2.9,3.2,6.3,5.7,10.2,7.6c0.8,0.4,0.9,0.3,0.9-0.6c0-2.6,0.5-5.1,1-7.7c0.2-0.8,0.5-1.7,0.7-2.5c0.4-1.9,1-3.8,1.7-5.7
				c0.4-1.4,1-2.7,1.5-4c0.8-2.1,1.7-4.1,2.6-6.1c0.3-0.7,0.3-0.8-0.5-0.8c-3.5,0-7,0-10.4,0c-0.2,0-0.3,0-0.5,0c-2,0.3-4,0.2-6,0.6
				c-1.7,0.3-3.3,0.5-4.9,1.1C303.8,85.6,302.5,86.8,302.6,88.7z"/>
		</g>
	</g>
	<path class="st2" d="M366.4,64.8c0,0-9.4,0.5-16.2,1.7c-3.5,0.6-8.4,2.4-9.9,3.5c-2.8,2-2.1,2.9-1.4,3.7c0.9,1.1,5.8,1.8,6.5,2.1
		c0.3,0.1,5.9,1.1,7.3,1.2c1.9,0.1,13.5,1.3,25.5,0.8c13.7-0.5,22-2.7,23.1-3.2c1.3-0.6,2.5-1.5,2.5-2.3c0-2.2-3.9-3.3-7-4.3
		c-4.1-1.3-12.9-2.8-18.4-3.1c-1.6-0.1-2.8-0.1-2.8-0.1"/>
	<path class="st2" d="M363.7,66.5c0,0,1.9-0.4,2.4-1.1c0.4-0.5,0.5-1.1,0.5-1.3c0.1-0.3-0.2-0.5-0.2-0.6"/>
	<path class="st2" d="M378.2,66.4c0,0-1.9-0.4-2.4-1.1c-0.4-0.5-0.5-1.1-0.5-1.3c-0.1-0.3,0.2-0.5,0.2-0.6"/>
</g>
</svg>
