<?xml version="1.0" encoding="utf-8"?>
<!-- Generator: Adobe Illustrator 25.4.1, SVG Export Plug-In . SVG Version: 6.00 Build 0)  -->
<svg version="1.1" id="Layer_1" xmlns="http://www.w3.org/2000/svg" xmlns:xlink="http://www.w3.org/1999/xlink" x="0px" y="0px"
	 viewBox="0 0 1542 805.6" style="enable-background:new 0 0 1542 805.6;" xml:space="preserve">
<style type="text/css">
	.st0{opacity:0.5;}
	.st1{fill:#CCCCCC;stroke:#000000;stroke-width:4;stroke-miterlimit:10;}
	.st2{fill:#CCCCCC;stroke:#000000;stroke-width:3;stroke-miterlimit:10;}
</style>
<g class="st0">
	<g id="GqoF49.tif">
		<g>
			<path class="st1" d="M304.3,221.3c9,0,18-0.6,27,0.2c9.8,0.9,14.7-4.2,18.3-12c4.5-9.8,8.6-19.8,13.6-29.4
				c9.3-18,23.1-31.5,41.6-40.1c27.5-12.7,56.7-19.2,86.2-24.6c32.9-6,66.1-10.1,99.5-12.6c21.2-1.6,42.5-3.5,63.8-3.6
				c4,0,8-0.5,11.9-0.8c3.1-0.2,5.4-1.8,6.5-4.6c1.1-2.6,0.1-4.8-1.6-6.9c-8.7-10.3-17.3-20.6-26.1-30.9c-3-3.5-5.5-7-6-11.8
				c-0.1-1.4-0.9-3-1.9-4c-8.4-9-2.9-19.2,5.9-24.4c10.8-6.5,22.8-9.6,35-11c32.4-3.7,64.8-4.3,96.9,2.8c7.1,1.6,13.6,4.4,20,7.6
				c8,4,11,11.1,9.5,19.9c-2.1,12.2-10,20.7-17.9,29.4c-7.8,8.6-16.2,16.7-21.6,27.2c-2.6,5.1-2.3,6,3.5,7
				c9.7,1.7,19.6,0.4,29.4,1.6c18.3,2.2,36.8,2.7,55.2,3.2c5,0.1,10,0.9,14.8,2c15.4,3.2,31.1,2.2,46.6,4.8
				c23.6,3.9,47.3,7.4,70.6,13.2c19.4,4.8,38.5,10.5,56.1,20.4c16.9,9.6,28.8,23.4,36.4,41c7.5,17.6,15.8,34.8,23.8,52.2
				c12.1,26.3,24.1,52.6,35.5,79.2c9.5,22.2,17.8,44.8,26.6,67.2c2.5,6.3,4.3,12.9,6.6,19.4c3,8.4,5.9,10.4,14.6,8.8
				c27.4-4.8,52.5-14.9,73.3-33.9c10.4-9.5,18.8-20.7,25.5-33.1c13-24.2,20.5-50.5,29.4-76.3c6.2-17.9,13.3-35.6,24.3-51.2
				c20.2-28.8,46.7-46.6,83.2-49.3c33.3-2.4,66.5-2.7,99.8-2.5c4.6,0,9.3,0.8,13.9,1.6c2.6,0.4,5.5,1.1,6,4.4c0.4,2.9-1.9,4.6-3.9,6
				c-7,4.9-15,7.9-22.7,11.5c-23.5,11.1-46.7,23-65.6,41.2c-12.8,12.4-24.1,26.1-33.3,41.5c-10.4,17.4-18.1,35.9-25,54.8
				c-7.7,21.1-13.1,43-19.3,64.5c-7.8,26.8-15.4,53.7-26.3,79.5c-10,23.5-22.7,45.1-39.3,64.5c-17.2,20.1-37.5,35.9-60.6,48.8
				c-14.2,8-29.1,13.8-44.3,19.3c-9.5,3.4-15.9,9.5-19.5,18.6c-4.8,12.3-12.5,22.7-20.2,33.1c-8.3,11.1-16.9,21.8-26.9,31.4
				c-14.9,14.2-30.2,28-46.4,40.7c-3.3,2.6-5.7,6-8.4,9.2c-9.8,11.5-23,18-36.5,23.8c-27.8,12-57.5,17.3-86.9,24
				c-16,3.6-32.4,2.7-48.2,7.4c-5.1,1.5-10.9,1-16.4,1.1c-11.9,0.1-23.4,2.3-35,4.4c-9.1,1.6-18.5,2.3-27.7,2.6
				c-13,0.4-25.7,3.1-38.7,3.7c-2.5,0.1-5,0.5-7.5,0.5c-22,0.1-44,0.6-65.9-1.1c-31-2.4-62.1-2.7-93.1-5.8
				c-22.7-2.2-45.5-3.3-68-6.3c-49.1-6.6-98.3-13.4-145.7-28.8c-15.1-4.9-29.8-10.6-42.2-21c-2.2-1.8-4.2-3.8-6.2-5.7
				c-9.6-9.2-20.1-17.7-28.4-27.9c-9-11.1-21.7-17.1-31.8-26.6c-6.4-6-11.3-13-16.7-19.7c-10.1-12.4-18.4-26-25.6-40.3
				c-2.3-4.7-7-7-11.5-9.2c-21.9-10.9-43.8-21.8-64.9-34.3c-27.2-16-53.2-33.5-77.3-53.9c-24.6-20.8-46.7-44-64.6-71
				c-16.6-25.1-28.9-52.2-34-82c-4-23.6-5.4-47.7,1-71.3c5.2-19.4,17.6-33.7,34.5-44.1c23.8-14.6,50.5-20.4,77.6-24.5
				c32-4.8,64.2-6.3,96.5-7.3C244.7,222,274.5,221.6,304.3,221.3z M73.7,333.5c1.1,12.4,2.7,24.8,6.4,36.7c4.7,15.3,11,29.9,18.6,44
				c10.5,19.6,23.4,37.5,38.1,54.1c27,30.4,59.4,53.7,95.9,71.3c7.1,3.4,8.8,2.4,8.8-5.6c-0.2-24.6,4.7-48.5,9.6-72.4
				c1.6-8,4.6-15.7,6.2-23.6c3.7-18.3,9.9-35.9,15.6-53.5c4.2-12.8,9.6-25.1,14.3-37.7c7.4-19.6,15.7-38.8,24.3-57.9
				c2.9-6.5,2.4-7.6-4.5-7.6c-32.8,0-65.6,0.1-98.4,0.1c-1.5,0-3,0-4.5,0.2c-18.9,3-38,2.3-57,5.3c-15.7,2.5-31.2,4.8-45.9,10.8
				C84.6,304.4,72.7,316,73.7,333.5z"/>
		</g>
	</g>
	<path class="st2" d="M675.7,108.4c0,0-89,5-153,16c-33.1,5.7-79.3,23-93,33c-26,19-20,27-13,35c8.9,10.1,54.5,16.7,61,20
		c2.8,1.4,55.9,10.3,69,11c18,1,127,12,240.5,7.5c129.4-5.1,207.6-25.4,218-30c12.5-5.5,23.5-14.5,23.5-21.5c0-21.2-37-31-66.5-40.5
		c-38.5-12.4-121.5-26.5-174-29c-15.5-0.7-26.5-0.5-26.5-0.5"/>
	<path class="st2" d="M650.2,123.9c0,0,18.2-3.9,23-10c3.5-4.5,4.7-10.4,5-12c0.5-2.5-1.5-4.5-1.5-5.5"/>
	<path class="st2" d="M787.2,122.9c0,0-18.2-3.9-23-10c-3.5-4.5-4.7-10.4-5-12c-0.5-2.5,1.5-4.5,1.5-5.5"/>
</g>
</svg>
